<mxfile host="app.diagrams.net" modified="2023-06-21T16:39:34.798Z" agent="Mozilla/5.0 (Macintosh; Intel Mac OS X 10_15_7) AppleWebKit/537.36 (KHTML, like Gecko) Chrome/114.0.0.0 Safari/537.36" version="21.3.8" etag="t7ZKosVW2Tvmi2qMxaP2" type="github">
  <diagram name="หน้า-1" id="mnJQLMdMX2JktJg0MfwG">
    <mxGraphModel>
      <root>
        <mxCell id="0" />
        <mxCell id="1" parent="0" />
      </root>
    </mxGraphModel>
  </diagram>
</mxfile>
